<svg width="266" height="259" viewBox="0 0 266 259" fill="none" xmlns="http://www.w3.org/2000/svg">
<g clip-path="url(#clip0_15_19)">
<path d="M144.33 0C159.08 0.1 172.81 4.67001 186.12 10.32C218.7 24.17 240.48 48.41 252.71 81.39C260.091 100.438 263.865 120.692 263.84 141.12H202.93V258.24H179.35V117.52H235.55C235.55 102.66 232.41 89.34 225.08 77.21C206.68 46.81 179.27 29.82 144.42 24.36L144.33 0Z" fill="#030303"/>
<path d="M118.42 258.02C42 251.76 -7.89006 179.23 1.02994 117.43H59.43V107.28C59.43 94.62 59.28 81.95 59.56 69.28C59.7044 66.7552 60.7145 64.3573 62.42 62.49C68.74 55.97 75.4199 49.82 82.5299 43.03V141.19H28.04C25.95 150.05 27.4899 158.35 30.7199 165.97C44.8899 199.32 68.7199 222.06 104.5 230.97C108.96 232.08 113.75 231.91 118.38 232.33C118.393 240.883 118.407 249.447 118.42 258.02Z" fill="#030303"/>
<path d="M118.42 258.02C118.42 249.453 118.42 240.883 118.42 232.31C118.48 230.15 118.6 227.99 118.6 225.83C118.6 152.57 118.6 79.3133 118.6 6.06V0H144.36L144.45 24.36C144.3 26.15 144.03 27.95 144.03 29.75C144.03 103.75 144.03 177.777 144.03 251.83V258.02H118.42Z" fill="#EC1C25"/>
<path d="M82.87 0.130005C82.87 7.13 82.94 13.98 82.81 20.79C82.743 22.077 82.2425 23.3035 81.39 24.27C74.58 31.56 67.67 38.75 60.79 45.97L59.64 45.08V0.0800171L82.87 0.130005Z" fill="#EC1C25"/>
<path d="M265.24 249.05C265.24 249.15 265.14 249.24 265.1 249.34L264.67 249.06L264.95 248.77L265.24 249.05Z" fill="#EC1C25"/>
</g>
<defs>
<clipPath id="clip0_15_19">
<rect width="265.24" height="258.24" fill="white"/>
</clipPath>
</defs>
</svg>
